# xmcd CD database file
#
# Track frame offsets:
#	225
#	11448
#	22448
#	31718
#	43785
#	55903
#	67456
#	77851
#	91511
#	100832
#	113370
#	125010
#	138667
#	149987
#	159361
#	171234
#	182488
#	193729
#	207024
#	218292
#
# Disc length: 3093 seconds
#
# Revision: 0
# Processed by: cddbd v1.5.2PL0 Copyright (c) Steve Scherf et al.
# Submitted via: jetAudio 7
#
DISCID=1c0c1214
DTITLE=Danny Davis and The Nashville Brass - Travelin' and Caribbean Cruise
DYEAR=1900
DGENRE=Country
TTITLE0=Rocky Top
TTITLE1=The Last Letter
TTITLE2=Brassy Bluegrass
TTITLE3=Almost Persuaded
TTITLE4=Ramblin' On
TTITLE5=Gotta Travel On Travelin'
TTITLE6=Are You Sincere
TTITLE7=The Nashville Express
TTITLE8=Life Is Like A Mountain Railway
TTITLE9=If You Leave Me Tonight I'll Cry
TTITLE10=Marianne
TTITLE11=Jamaica Farewell
TTITLE12=I Can See Clearly Now
TTITLE13=Mama Don't Want No Peas An' Rice An' Cocoanut Oil
TTITLE14=La Fiesta
TTITLE15=Caribbean
TTITLE16=Banana Boat Song
TTITLE17=Yellow Bird
TTITLE18=Matilda, Matilda
TTITLE19=Jamaican Sunset
EXTD=©2016  Vocalion CDLK4597
EXTT0=
EXTT1=
EXTT2=
EXTT3=
EXTT4=
EXTT5=
EXTT6=
EXTT7=
EXTT8=
EXTT9=
EXTT10=
EXTT11=
EXTT12=
EXTT13=
EXTT14=
EXTT15=
EXTT16=
EXTT17=
EXTT18=
EXTT19=
PLAYORDER=
